<svg xmlns="http://www.w3.org/2000/svg" width="600" height="600" viewBox="0 0 600 600">
<defs>
  <linearGradient id="bgGrad" x1="0%" y1="0%" x2="100%" y2="100%">
    <stop offset="0%" stop-color="#41D1FF"/>
    <stop offset="100%" stop-color="#BD34FE"/>
  </linearGradient>
  <radialGradient id="halo" cx="50%" cy="30%" r="60%">
    <stop offset="0%" stop-color="#41D1FF" stop-opacity="0.35"/>
    <stop offset="100%" stop-color="#BD34FE" stop-opacity="0.08"/>
  </radialGradient>
  <clipPath id="round">
    <rect x="8" y="8" width="584" height="584" rx="96" ry="96"/>
  </clipPath>
  <filter id="shadow" x="-20%" y="-20%" width="140%" height="140%">
    <feDropShadow dx="0" dy="8" stdDeviation="10" flood-color="#0F172A" flood-opacity="0.18"/>
  </filter>
</defs>
<g clip-path="url(#round)"><rect x="8" y="8" width="584" height="584" rx="96" fill="#F8FAFC"/><circle cx="300" cy="220" r="210" fill="url(#halo)"/><path d="M 196.0 434.0 L 199.0 457.0 L 204.0 475.0 L 209.0 487.0 L 218.0 501.0 L 226.0 507.0 L 226.0 502.0 L 203.0 453.0 L 198.0 434.0 Z M 399.0 431.0 L 397.0 431.0 L 390.0 456.0 L 383.0 472.0 L 372.0 492.0 L 371.0 500.0 L 376.0 499.0 L 380.0 495.0 L 383.0 486.0 L 393.0 468.0 L 397.0 454.0 Z M 370.0 400.0 L 363.0 397.0 L 360.0 398.0 L 359.0 401.0 L 354.0 401.0 L 354.0 403.0 L 348.0 407.0 L 344.0 406.0 L 342.0 411.0 L 339.0 413.0 L 338.0 418.0 L 334.0 418.0 L 333.0 421.0 L 329.0 420.0 L 328.0 425.0 L 325.0 426.0 L 324.0 424.0 L 319.0 423.0 L 315.0 426.0 L 314.0 424.0 L 310.0 426.0 L 302.0 424.0 L 301.0 426.0 L 297.0 425.0 L 298.0 428.0 L 291.0 437.0 L 286.0 435.0 L 288.0 430.0 L 283.0 430.0 L 276.0 437.0 L 273.0 435.0 L 271.0 437.0 L 270.0 433.0 L 272.0 432.0 L 272.0 429.0 L 269.0 427.0 L 266.0 429.0 L 268.0 432.0 L 267.0 433.0 L 260.0 433.0 L 258.0 431.0 L 259.0 427.0 L 257.0 422.0 L 255.0 422.0 L 254.0 428.0 L 251.0 429.0 L 249.0 417.0 L 244.0 415.0 L 239.0 416.0 L 235.0 412.0 L 239.0 411.0 L 238.0 408.0 L 233.0 409.0 L 227.0 407.0 L 228.0 411.0 L 233.0 412.0 L 234.0 417.0 L 232.0 419.0 L 227.0 417.0 L 225.0 409.0 L 222.0 409.0 L 222.0 411.0 L 224.0 413.0 L 224.0 418.0 L 229.0 423.0 L 237.0 428.0 L 242.0 434.0 L 245.0 434.0 L 253.0 439.0 L 274.0 445.0 L 298.0 445.0 L 322.0 441.0 L 346.0 427.0 L 347.0 424.0 L 355.0 420.0 L 356.0 417.0 L 362.0 413.0 L 362.0 410.0 L 360.0 409.0 L 363.0 408.0 L 363.0 404.0 L 369.0 404.0 Z M 159.0 277.0 L 157.0 279.0 L 159.0 286.0 L 163.0 288.0 L 170.0 296.0 L 172.0 296.0 L 172.0 289.0 L 166.0 285.0 L 165.0 277.0 Z M 422.0 268.0 L 415.0 270.0 L 417.0 273.0 L 414.0 274.0 L 413.0 289.0 L 415.0 289.0 L 423.0 281.0 L 425.0 270.0 Z M 171.0 230.0 L 171.0 236.0 L 168.0 237.0 L 168.0 239.0 L 173.0 241.0 L 173.0 230.0 Z M 413.0 232.0 L 423.0 227.0 L 423.0 225.0 L 417.0 227.0 L 413.0 225.0 Z M 240.0 224.0 L 226.0 224.0 L 211.0 227.0 L 210.0 229.0 L 207.0 227.0 L 205.0 229.0 L 206.0 234.0 L 204.0 235.0 L 204.0 240.0 L 212.0 239.0 L 211.0 236.0 L 219.0 228.0 L 223.0 229.0 L 225.0 236.0 L 229.0 238.0 L 236.0 237.0 L 238.0 233.0 L 234.0 231.0 L 234.0 228.0 L 240.0 226.0 Z M 228.0 226.0 L 231.0 228.0 L 229.0 232.0 L 225.0 230.0 Z M 339.0 218.0 L 339.0 220.0 L 343.0 220.0 L 345.0 222.0 L 345.0 225.0 L 341.0 227.0 L 342.0 231.0 L 351.0 232.0 L 354.0 230.0 L 356.0 226.0 L 355.0 217.0 Z M 350.0 221.0 L 353.0 222.0 L 353.0 226.0 L 351.0 228.0 L 348.0 226.0 Z M 361.0 218.0 L 361.0 220.0 L 369.0 227.0 L 369.0 234.0 L 375.0 234.0 L 375.0 221.0 L 368.0 216.0 Z M 171.0 146.0 L 166.0 172.0 L 166.0 194.0 L 170.0 215.0 L 171.0 228.0 L 174.0 228.0 L 175.0 194.0 L 173.0 186.0 L 176.0 185.0 L 176.0 181.0 L 168.0 178.0 L 170.0 176.0 L 173.0 178.0 L 175.0 166.0 L 171.0 165.0 L 176.0 164.0 L 176.0 162.0 L 173.0 161.0 L 181.0 156.0 L 178.0 151.0 L 186.0 148.0 L 188.0 145.0 L 188.0 139.0 L 191.0 138.0 L 191.0 136.0 L 188.0 135.0 L 192.0 132.0 L 192.0 130.0 L 189.0 129.0 L 193.0 127.0 L 200.0 111.0 L 204.0 111.0 L 205.0 109.0 L 212.0 107.0 L 221.0 108.0 L 224.0 102.0 L 225.0 104.0 L 233.0 105.0 L 233.0 103.0 L 237.0 100.0 L 243.0 100.0 L 244.0 102.0 L 248.0 102.0 L 249.0 99.0 L 252.0 101.0 L 258.0 100.0 L 258.0 98.0 L 263.0 94.0 L 267.0 97.0 L 274.0 96.0 L 275.0 98.0 L 280.0 97.0 L 293.0 99.0 L 296.0 97.0 L 297.0 99.0 L 317.0 102.0 L 318.0 104.0 L 322.0 104.0 L 324.0 102.0 L 331.0 107.0 L 338.0 108.0 L 341.0 113.0 L 344.0 111.0 L 353.0 112.0 L 356.0 116.0 L 365.0 114.0 L 366.0 118.0 L 370.0 118.0 L 375.0 126.0 L 376.0 132.0 L 379.0 136.0 L 378.0 141.0 L 381.0 142.0 L 380.0 145.0 L 385.0 149.0 L 384.0 152.0 L 389.0 155.0 L 389.0 159.0 L 394.0 161.0 L 397.0 169.0 L 401.0 170.0 L 399.0 175.0 L 403.0 178.0 L 404.0 183.0 L 406.0 184.0 L 406.0 190.0 L 408.0 191.0 L 408.0 205.0 L 411.0 212.0 L 412.0 222.0 L 415.0 222.0 L 415.0 196.0 L 412.0 173.0 L 402.0 143.0 L 394.0 129.0 L 377.0 109.0 L 358.0 93.0 L 315.0 70.0 L 298.0 66.0 L 270.0 66.0 L 242.0 75.0 L 223.0 87.0 L 200.0 106.0 L 180.0 130.0 Z" fill="rgb(87, 61, 58)" fill-opacity="0.98"/><path d="M 373.0 488.0 L 370.0 489.0 L 363.0 501.0 L 362.0 507.0 L 356.0 510.0 L 356.0 513.0 L 359.0 513.0 L 360.0 511.0 L 363.0 515.0 L 366.0 515.0 L 371.0 510.0 L 374.0 503.0 L 369.0 500.0 Z M 220.0 486.0 L 229.0 508.0 L 228.0 511.0 L 226.0 511.0 L 225.0 508.0 L 223.0 508.0 L 223.0 510.0 L 238.0 531.0 L 243.0 533.0 L 243.0 527.0 L 238.0 519.0 L 236.0 509.0 L 232.0 502.0 L 228.0 499.0 L 222.0 486.0 Z M 276.0 453.0 L 277.0 459.0 L 275.0 462.0 L 278.0 463.0 L 279.0 466.0 L 288.0 468.0 L 300.0 468.0 L 302.0 466.0 L 300.0 460.0 L 292.0 461.0 L 284.0 457.0 L 282.0 454.0 Z M 200.0 439.0 L 204.0 453.0 L 207.0 459.0 L 209.0 459.0 L 205.0 448.0 L 206.0 442.0 Z M 394.0 426.0 L 391.0 426.0 L 389.0 431.0 L 386.0 432.0 L 386.0 434.0 L 390.0 434.0 L 388.0 437.0 L 388.0 443.0 L 384.0 448.0 L 384.0 451.0 L 387.0 453.0 L 386.0 458.0 L 389.0 456.0 L 397.0 428.0 Z M 291.0 421.0 L 282.0 424.0 L 281.0 428.0 L 280.0 424.0 L 278.0 424.0 L 275.0 429.0 L 274.0 424.0 L 270.0 424.0 L 270.0 427.0 L 274.0 429.0 L 273.0 434.0 L 278.0 435.0 L 282.0 428.0 L 286.0 426.0 L 292.0 429.0 L 290.0 430.0 L 289.0 434.0 L 294.0 432.0 Z M 301.0 418.0 L 303.0 423.0 L 310.0 425.0 L 310.0 421.0 L 307.0 422.0 Z M 333.0 415.0 L 326.0 416.0 L 324.0 422.0 L 327.0 422.0 L 329.0 419.0 L 333.0 418.0 Z M 215.0 409.0 L 215.0 411.0 L 223.0 415.0 L 220.0 410.0 Z M 334.0 402.0 L 335.0 409.0 L 333.0 412.0 L 335.0 412.0 L 336.0 409.0 L 341.0 410.0 L 341.0 407.0 Z M 338.0 400.0 L 341.0 405.0 L 345.0 405.0 L 344.0 401.0 L 341.0 402.0 Z M 344.0 391.0 L 341.0 391.0 L 337.0 398.0 L 344.0 396.0 Z M 192.0 378.0 L 194.0 386.0 L 199.0 387.0 L 200.0 383.0 L 195.0 383.0 L 198.0 378.0 Z M 335.0 363.0 L 332.0 363.0 L 328.0 369.0 L 335.0 366.0 Z M 372.0 362.0 L 370.0 362.0 L 372.0 366.0 L 369.0 368.0 L 368.0 372.0 L 372.0 370.0 L 375.0 372.0 L 372.0 373.0 L 371.0 377.0 L 369.0 378.0 L 369.0 381.0 L 371.0 382.0 L 368.0 383.0 L 367.0 386.0 L 362.0 386.0 L 361.0 384.0 L 357.0 386.0 L 354.0 382.0 L 348.0 383.0 L 348.0 385.0 L 353.0 385.0 L 350.0 390.0 L 350.0 397.0 L 355.0 399.0 L 356.0 396.0 L 364.0 394.0 L 366.0 390.0 L 376.0 392.0 L 376.0 388.0 L 370.0 387.0 L 372.0 382.0 L 373.0 385.0 L 375.0 385.0 L 375.0 377.0 L 378.0 373.0 L 378.0 371.0 L 372.0 368.0 L 374.0 367.0 Z M 317.0 329.0 L 317.0 331.0 L 320.0 331.0 L 322.0 334.0 L 322.0 340.0 L 330.0 339.0 L 329.0 335.0 L 324.0 333.0 L 321.0 328.0 Z M 175.0 316.0 L 176.0 324.0 L 179.0 326.0 L 177.0 316.0 Z M 315.0 318.0 L 323.0 317.0 L 324.0 312.0 L 317.0 312.0 Z M 174.0 304.0 L 174.0 313.0 L 177.0 314.0 L 176.0 304.0 Z M 416.0 301.0 L 415.0 306.0 L 423.0 306.0 L 423.0 303.0 Z M 170.0 261.0 L 170.0 265.0 L 168.0 266.0 L 169.0 269.0 L 159.0 271.0 L 158.0 276.0 L 164.0 275.0 L 166.0 277.0 L 167.0 285.0 L 174.0 288.0 L 173.0 263.0 Z M 425.0 244.0 L 427.0 253.0 L 429.0 253.0 L 428.0 245.0 Z M 151.0 242.0 L 153.0 242.0 L 155.0 238.0 L 163.0 237.0 L 166.0 239.0 L 165.0 235.0 L 155.0 233.0 L 155.0 238.0 L 152.0 239.0 Z M 312.0 229.0 L 308.0 230.0 L 307.0 235.0 L 309.0 237.0 L 306.0 241.0 L 305.0 238.0 L 302.0 238.0 L 302.0 242.0 L 306.0 245.0 L 306.0 249.0 L 308.0 249.0 L 309.0 246.0 L 316.0 247.0 L 317.0 241.0 L 314.0 238.0 Z M 199.0 227.0 L 198.0 241.0 L 200.0 244.0 L 198.0 248.0 L 202.0 251.0 L 206.0 251.0 L 208.0 249.0 L 218.0 251.0 L 218.0 242.0 L 215.0 239.0 L 207.0 241.0 L 203.0 240.0 L 202.0 236.0 L 206.0 225.0 Z M 219.0 220.0 L 212.0 222.0 L 211.0 226.0 L 218.0 225.0 Z M 371.0 213.0 L 369.0 216.0 L 377.0 223.0 L 377.0 234.0 L 370.0 237.0 L 367.0 231.0 L 365.0 231.0 L 361.0 236.0 L 361.0 240.0 L 368.0 243.0 L 378.0 243.0 L 382.0 246.0 L 385.0 244.0 L 383.0 223.0 L 380.0 218.0 L 374.0 213.0 Z M 352.0 212.0 L 352.0 215.0 L 358.0 215.0 L 359.0 217.0 L 364.0 216.0 L 362.0 213.0 Z M 342.0 212.0 L 342.0 215.0 L 350.0 214.0 L 350.0 212.0 Z M 189.0 194.0 L 189.0 196.0 L 196.0 197.0 L 196.0 194.0 L 194.0 193.0 Z M 195.0 173.0 L 193.0 173.0 L 193.0 175.0 L 196.0 176.0 L 190.0 178.0 L 190.0 181.0 L 193.0 182.0 L 194.0 186.0 L 189.0 189.0 L 189.0 191.0 L 195.0 191.0 L 195.0 189.0 L 199.0 186.0 L 199.0 176.0 Z M 205.0 110.0 L 197.0 118.0 L 195.0 123.0 L 194.0 133.0 L 192.0 134.0 L 192.0 139.0 L 187.0 150.0 L 190.0 149.0 L 191.0 151.0 L 186.0 154.0 L 186.0 162.0 L 184.0 164.0 L 180.0 164.0 L 180.0 170.0 L 178.0 171.0 L 179.0 176.0 L 177.0 177.0 L 177.0 185.0 L 175.0 188.0 L 177.0 199.0 L 176.0 208.0 L 181.0 207.0 L 181.0 204.0 L 178.0 202.0 L 181.0 201.0 L 179.0 192.0 L 181.0 191.0 L 183.0 179.0 L 189.0 173.0 L 188.0 169.0 L 190.0 168.0 L 190.0 164.0 L 195.0 164.0 L 198.0 152.0 L 200.0 151.0 L 198.0 146.0 L 204.0 146.0 L 208.0 137.0 L 211.0 135.0 L 215.0 136.0 L 216.0 133.0 L 221.0 133.0 L 223.0 128.0 L 229.0 127.0 L 229.0 124.0 L 234.0 120.0 L 238.0 120.0 L 240.0 116.0 L 241.0 118.0 L 255.0 121.0 L 256.0 119.0 L 274.0 119.0 L 278.0 121.0 L 287.0 120.0 L 288.0 122.0 L 291.0 120.0 L 294.0 123.0 L 297.0 123.0 L 298.0 120.0 L 299.0 123.0 L 304.0 125.0 L 306.0 120.0 L 310.0 121.0 L 312.0 125.0 L 314.0 125.0 L 315.0 122.0 L 316.0 125.0 L 323.0 123.0 L 327.0 127.0 L 333.0 126.0 L 338.0 134.0 L 341.0 133.0 L 345.0 140.0 L 350.0 143.0 L 350.0 147.0 L 355.0 150.0 L 356.0 155.0 L 358.0 156.0 L 356.0 157.0 L 356.0 160.0 L 362.0 164.0 L 358.0 166.0 L 358.0 172.0 L 361.0 172.0 L 362.0 176.0 L 366.0 177.0 L 366.0 181.0 L 371.0 181.0 L 375.0 186.0 L 376.0 194.0 L 380.0 200.0 L 380.0 203.0 L 382.0 204.0 L 382.0 210.0 L 394.0 212.0 L 394.0 217.0 L 396.0 218.0 L 394.0 222.0 L 398.0 225.0 L 397.0 235.0 L 399.0 239.0 L 401.0 270.0 L 404.0 272.0 L 404.0 276.0 L 402.0 277.0 L 400.0 285.0 L 401.0 298.0 L 397.0 306.0 L 393.0 309.0 L 393.0 323.0 L 389.0 328.0 L 388.0 343.0 L 386.0 344.0 L 390.0 351.0 L 387.0 352.0 L 386.0 357.0 L 390.0 358.0 L 391.0 360.0 L 386.0 364.0 L 385.0 361.0 L 378.0 361.0 L 377.0 356.0 L 375.0 356.0 L 374.0 353.0 L 370.0 354.0 L 372.0 358.0 L 378.0 361.0 L 378.0 367.0 L 381.0 367.0 L 381.0 363.0 L 389.0 367.0 L 386.0 371.0 L 386.0 374.0 L 389.0 376.0 L 383.0 377.0 L 383.0 380.0 L 379.0 382.0 L 378.0 389.0 L 383.0 391.0 L 383.0 387.0 L 381.0 386.0 L 383.0 381.0 L 385.0 384.0 L 389.0 381.0 L 391.0 382.0 L 391.0 385.0 L 386.0 389.0 L 385.0 393.0 L 381.0 394.0 L 381.0 396.0 L 383.0 396.0 L 384.0 400.0 L 386.0 400.0 L 389.0 404.0 L 384.0 412.0 L 390.0 412.0 L 391.0 422.0 L 394.0 422.0 L 394.0 412.0 L 397.0 411.0 L 399.0 396.0 L 399.0 378.0 L 395.0 378.0 L 391.0 381.0 L 390.0 377.0 L 392.0 374.0 L 390.0 373.0 L 392.0 368.0 L 396.0 369.0 L 397.0 363.0 L 400.0 365.0 L 398.0 362.0 L 399.0 356.0 L 404.0 351.0 L 403.0 348.0 L 405.0 347.0 L 405.0 335.0 L 408.0 319.0 L 406.0 318.0 L 407.0 315.0 L 410.0 314.0 L 411.0 298.0 L 413.0 297.0 L 412.0 288.0 L 409.0 287.0 L 413.0 285.0 L 413.0 276.0 L 410.0 275.0 L 410.0 271.0 L 413.0 270.0 L 414.0 267.0 L 411.0 263.0 L 413.0 261.0 L 416.0 263.0 L 416.0 267.0 L 423.0 266.0 L 427.0 270.0 L 425.0 279.0 L 428.0 280.0 L 428.0 283.0 L 426.0 284.0 L 428.0 291.0 L 430.0 291.0 L 434.0 265.0 L 434.0 262.0 L 430.0 262.0 L 430.0 266.0 L 428.0 268.0 L 424.0 263.0 L 416.0 261.0 L 416.0 257.0 L 412.0 255.0 L 416.0 249.0 L 414.0 246.0 L 415.0 236.0 L 419.0 232.0 L 425.0 230.0 L 425.0 242.0 L 427.0 242.0 L 428.0 232.0 L 431.0 231.0 L 434.0 233.0 L 434.0 230.0 L 431.0 228.0 L 431.0 225.0 L 429.0 225.0 L 427.0 228.0 L 419.0 229.0 L 419.0 231.0 L 416.0 232.0 L 414.0 236.0 L 412.0 227.0 L 410.0 226.0 L 411.0 220.0 L 409.0 219.0 L 408.0 215.0 L 410.0 212.0 L 406.0 207.0 L 407.0 197.0 L 406.0 192.0 L 404.0 191.0 L 405.0 186.0 L 403.0 181.0 L 400.0 180.0 L 401.0 177.0 L 398.0 175.0 L 393.0 164.0 L 390.0 163.0 L 387.0 157.0 L 381.0 153.0 L 383.0 152.0 L 383.0 149.0 L 378.0 144.0 L 377.0 137.0 L 374.0 135.0 L 374.0 126.0 L 368.0 121.0 L 365.0 122.0 L 362.0 118.0 L 356.0 119.0 L 353.0 114.0 L 345.0 115.0 L 344.0 117.0 L 343.0 115.0 L 331.0 112.0 L 334.0 108.0 L 328.0 109.0 L 325.0 107.0 L 325.0 104.0 L 323.0 104.0 L 323.0 107.0 L 321.0 108.0 L 319.0 105.0 L 316.0 106.0 L 307.0 104.0 L 306.0 102.0 L 303.0 102.0 L 302.0 105.0 L 300.0 100.0 L 298.0 100.0 L 297.0 104.0 L 295.0 100.0 L 290.0 102.0 L 287.0 100.0 L 286.0 102.0 L 285.0 99.0 L 275.0 99.0 L 274.0 97.0 L 270.0 98.0 L 268.0 101.0 L 266.0 97.0 L 263.0 97.0 L 262.0 100.0 L 259.0 99.0 L 257.0 102.0 L 252.0 102.0 L 251.0 104.0 L 246.0 103.0 L 237.0 106.0 L 227.0 106.0 L 226.0 108.0 Z" fill="rgb(137, 87, 77)" fill-opacity="0.98"/><path d="M 353.0 511.0 L 353.0 521.0 L 356.0 528.0 L 353.0 529.0 L 353.0 531.0 L 357.0 531.0 L 365.0 523.0 L 367.0 516.0 L 363.0 516.0 L 361.0 518.0 L 363.0 521.0 L 359.0 522.0 L 358.0 524.0 L 357.0 520.0 L 359.0 519.0 L 359.0 516.0 L 355.0 513.0 L 355.0 511.0 Z M 258.0 443.0 L 258.0 446.0 L 262.0 450.0 L 270.0 449.0 L 275.0 452.0 L 280.0 452.0 L 282.0 450.0 L 282.0 447.0 L 276.0 447.0 L 275.0 450.0 L 273.0 446.0 L 264.0 446.0 L 263.0 444.0 Z M 388.0 419.0 L 386.0 419.0 L 382.0 425.0 L 384.0 429.0 L 381.0 431.0 L 381.0 434.0 L 384.0 437.0 L 384.0 440.0 L 387.0 440.0 L 385.0 432.0 L 387.0 430.0 Z M 290.0 418.0 L 290.0 420.0 L 295.0 419.0 L 299.0 421.0 L 297.0 416.0 Z M 289.0 413.0 L 283.0 414.0 L 283.0 417.0 L 287.0 418.0 Z M 382.0 404.0 L 377.0 403.0 L 376.0 408.0 L 367.0 410.0 L 361.0 421.0 L 365.0 423.0 L 365.0 420.0 L 370.0 418.0 L 372.0 420.0 L 372.0 425.0 L 375.0 425.0 L 377.0 420.0 L 374.0 419.0 L 373.0 416.0 L 375.0 412.0 L 376.0 415.0 L 382.0 415.0 Z M 194.0 392.0 L 195.0 413.0 L 197.0 418.0 L 196.0 425.0 L 201.0 437.0 L 207.0 442.0 L 209.0 447.0 L 210.0 461.0 L 217.0 478.0 L 221.0 483.0 L 223.0 483.0 L 223.0 480.0 L 221.0 479.0 L 222.0 476.0 L 217.0 472.0 L 219.0 471.0 L 218.0 467.0 L 214.0 466.0 L 217.0 465.0 L 217.0 456.0 L 215.0 454.0 L 217.0 449.0 L 213.0 443.0 L 216.0 442.0 L 215.0 436.0 L 218.0 435.0 L 218.0 433.0 L 216.0 432.0 L 215.0 428.0 L 211.0 427.0 L 223.0 426.0 L 224.0 429.0 L 227.0 429.0 L 227.0 424.0 L 224.0 423.0 L 224.0 420.0 L 217.0 412.0 L 215.0 412.0 L 207.0 404.0 L 203.0 403.0 L 205.0 400.0 L 202.0 400.0 L 201.0 398.0 L 197.0 399.0 L 196.0 392.0 Z M 239.0 391.0 L 241.0 399.0 L 245.0 398.0 L 245.0 394.0 L 243.0 394.0 L 242.0 391.0 Z M 362.0 371.0 L 362.0 375.0 L 370.0 377.0 L 370.0 374.0 L 365.0 374.0 L 366.0 370.0 Z M 248.0 370.0 L 248.0 374.0 L 253.0 376.0 L 250.0 377.0 L 250.0 379.0 L 256.0 380.0 L 258.0 377.0 L 258.0 372.0 L 256.0 370.0 Z M 338.0 368.0 L 333.0 367.0 L 326.0 371.0 L 325.0 368.0 L 323.0 368.0 L 322.0 372.0 L 325.0 373.0 L 323.0 374.0 L 323.0 377.0 L 326.0 380.0 L 329.0 380.0 L 334.0 374.0 L 337.0 374.0 Z M 243.0 361.0 L 240.0 363.0 L 232.0 359.0 L 231.0 372.0 L 233.0 375.0 L 230.0 376.0 L 230.0 378.0 L 232.0 378.0 L 233.0 375.0 L 236.0 375.0 L 236.0 371.0 L 242.0 372.0 L 241.0 369.0 L 243.0 366.0 L 241.0 364.0 Z M 255.0 360.0 L 255.0 362.0 L 266.0 363.0 L 267.0 365.0 L 275.0 364.0 L 275.0 361.0 L 268.0 360.0 L 266.0 358.0 Z M 312.0 362.0 L 321.0 359.0 L 332.0 359.0 L 336.0 357.0 L 336.0 355.0 L 320.0 355.0 L 316.0 358.0 L 312.0 358.0 Z M 358.0 349.0 L 359.0 352.0 L 357.0 355.0 L 362.0 355.0 L 361.0 350.0 Z M 347.0 347.0 L 342.0 347.0 L 341.0 352.0 L 343.0 352.0 L 347.0 358.0 L 344.0 360.0 L 343.0 368.0 L 346.0 368.0 L 347.0 372.0 L 338.0 382.0 L 336.0 387.0 L 335.0 384.0 L 332.0 384.0 L 329.0 389.0 L 325.0 389.0 L 325.0 393.0 L 330.0 395.0 L 332.0 399.0 L 328.0 409.0 L 332.0 406.0 L 333.0 400.0 L 335.0 399.0 L 335.0 393.0 L 339.0 393.0 L 340.0 390.0 L 350.0 381.0 L 350.0 378.0 L 353.0 377.0 L 355.0 373.0 L 360.0 371.0 L 361.0 365.0 L 358.0 364.0 L 365.0 364.0 L 365.0 362.0 L 363.0 362.0 L 359.0 357.0 L 356.0 359.0 L 355.0 357.0 L 350.0 359.0 L 349.0 355.0 L 344.0 350.0 L 347.0 349.0 Z M 163.0 309.0 L 160.0 317.0 L 165.0 320.0 L 162.0 315.0 L 165.0 313.0 L 165.0 309.0 Z M 153.0 283.0 L 150.0 285.0 L 152.0 288.0 L 151.0 294.0 L 155.0 296.0 L 153.0 299.0 L 156.0 299.0 L 157.0 293.0 L 155.0 292.0 L 154.0 288.0 L 156.0 285.0 Z M 154.0 271.0 L 153.0 277.0 L 156.0 277.0 L 157.0 271.0 Z M 188.0 208.0 L 183.0 217.0 L 177.0 215.0 L 177.0 218.0 L 179.0 219.0 L 176.0 220.0 L 177.0 225.0 L 175.0 228.0 L 178.0 229.0 L 179.0 236.0 L 178.0 237.0 L 177.0 233.0 L 175.0 233.0 L 174.0 242.0 L 177.0 243.0 L 172.0 247.0 L 172.0 252.0 L 177.0 253.0 L 174.0 255.0 L 176.0 264.0 L 174.0 265.0 L 176.0 287.0 L 178.0 288.0 L 177.0 296.0 L 179.0 298.0 L 179.0 310.0 L 181.0 315.0 L 179.0 321.0 L 182.0 322.0 L 180.0 328.0 L 184.0 330.0 L 177.0 335.0 L 177.0 339.0 L 179.0 339.0 L 180.0 336.0 L 183.0 346.0 L 181.0 347.0 L 182.0 350.0 L 180.0 353.0 L 188.0 357.0 L 189.0 369.0 L 193.0 369.0 L 196.0 376.0 L 199.0 378.0 L 199.0 382.0 L 202.0 380.0 L 204.0 383.0 L 200.0 386.0 L 200.0 388.0 L 205.0 387.0 L 207.0 389.0 L 212.0 402.0 L 215.0 402.0 L 218.0 397.0 L 221.0 402.0 L 223.0 402.0 L 223.0 397.0 L 227.0 396.0 L 227.0 394.0 L 223.0 391.0 L 226.0 387.0 L 226.0 379.0 L 228.0 375.0 L 221.0 371.0 L 221.0 366.0 L 218.0 366.0 L 217.0 363.0 L 214.0 362.0 L 214.0 353.0 L 210.0 352.0 L 209.0 344.0 L 204.0 339.0 L 204.0 328.0 L 197.0 328.0 L 194.0 330.0 L 188.0 318.0 L 189.0 312.0 L 186.0 311.0 L 185.0 290.0 L 183.0 289.0 L 183.0 274.0 L 180.0 273.0 L 183.0 270.0 L 183.0 266.0 L 180.0 258.0 L 184.0 243.0 L 183.0 237.0 L 186.0 235.0 L 187.0 230.0 L 190.0 229.0 L 192.0 222.0 L 188.0 221.0 L 191.0 219.0 L 192.0 210.0 Z M 196.0 336.0 L 199.0 338.0 L 197.0 345.0 L 191.0 343.0 Z M 239.0 195.0 L 239.0 200.0 L 248.0 199.0 L 248.0 196.0 L 243.0 197.0 Z M 188.0 194.0 L 185.0 194.0 L 185.0 196.0 L 182.0 197.0 L 182.0 206.0 L 186.0 205.0 Z M 333.0 193.0 L 327.0 195.0 L 327.0 197.0 L 332.0 198.0 Z M 220.0 134.0 L 218.0 134.0 L 213.0 140.0 L 213.0 145.0 L 206.0 146.0 L 207.0 151.0 L 202.0 151.0 L 198.0 161.0 L 201.0 162.0 L 199.0 166.0 L 202.0 165.0 L 207.0 171.0 L 201.0 173.0 L 201.0 175.0 L 206.0 177.0 L 204.0 180.0 L 206.0 183.0 L 210.0 184.0 L 212.0 188.0 L 210.0 192.0 L 207.0 192.0 L 206.0 198.0 L 208.0 198.0 L 211.0 191.0 L 215.0 191.0 L 214.0 185.0 L 210.0 183.0 L 211.0 177.0 L 215.0 175.0 L 215.0 168.0 L 213.0 167.0 L 215.0 166.0 L 215.0 163.0 L 213.0 160.0 L 217.0 157.0 L 217.0 150.0 L 214.0 148.0 L 217.0 146.0 L 220.0 139.0 Z M 248.0 121.0 L 248.0 123.0 L 252.0 125.0 L 251.0 128.0 L 259.0 129.0 L 263.0 126.0 L 264.0 128.0 L 271.0 129.0 L 271.0 126.0 L 268.0 123.0 L 259.0 124.0 Z M 245.0 120.0 L 230.0 124.0 L 230.0 127.0 L 222.0 133.0 L 222.0 136.0 L 226.0 138.0 L 226.0 136.0 L 232.0 132.0 L 233.0 129.0 L 242.0 124.0 L 245.0 125.0 Z" fill="rgb(150, 102, 93)" fill-opacity="0.98"/><path d="M 348.0 518.0 L 347.0 522.0 L 349.0 526.0 L 351.0 526.0 L 351.0 518.0 Z M 273.0 464.0 L 272.0 469.0 L 279.0 470.0 L 279.0 468.0 Z M 315.0 450.0 L 310.0 452.0 L 307.0 451.0 L 302.0 456.0 L 302.0 459.0 L 306.0 456.0 L 314.0 454.0 Z M 385.0 417.0 L 378.0 418.0 L 378.0 428.0 L 370.0 431.0 L 370.0 438.0 L 373.0 439.0 L 371.0 447.0 L 374.0 449.0 L 372.0 455.0 L 373.0 458.0 L 370.0 459.0 L 370.0 462.0 L 376.0 462.0 L 378.0 464.0 L 377.0 469.0 L 380.0 468.0 L 381.0 463.0 L 383.0 462.0 L 383.0 459.0 L 380.0 458.0 L 383.0 457.0 L 380.0 449.0 L 382.0 447.0 L 381.0 444.0 L 383.0 443.0 L 383.0 437.0 L 379.0 433.0 L 382.0 430.0 L 380.0 427.0 L 381.0 423.0 L 385.0 420.0 Z M 339.0 376.0 L 334.0 375.0 L 333.0 378.0 L 327.0 381.0 L 327.0 384.0 L 331.0 385.0 L 332.0 383.0 L 337.0 383.0 Z M 210.0 334.0 L 212.0 343.0 L 215.0 343.0 L 215.0 337.0 L 213.0 336.0 L 215.0 335.0 L 215.0 332.0 Z M 310.0 320.0 L 310.0 322.0 L 320.0 325.0 L 320.0 323.0 L 317.0 322.0 L 317.0 319.0 L 312.0 318.0 Z M 189.0 315.0 L 190.0 320.0 L 195.0 319.0 L 196.0 322.0 L 199.0 322.0 L 202.0 327.0 L 204.0 327.0 L 204.0 320.0 L 196.0 320.0 L 193.0 315.0 L 197.0 314.0 L 197.0 312.0 L 193.0 312.0 L 192.0 315.0 Z M 334.0 296.0 L 337.0 304.0 L 339.0 304.0 L 339.0 299.0 Z M 275.0 288.0 L 265.0 289.0 L 264.0 294.0 L 271.0 295.0 Z M 220.0 247.0 L 221.0 252.0 L 232.0 252.0 L 232.0 249.0 L 224.0 248.0 L 223.0 246.0 Z M 185.0 242.0 L 183.0 254.0 L 184.0 289.0 L 186.0 290.0 L 187.0 301.0 L 189.0 303.0 L 195.0 302.0 L 194.0 293.0 L 191.0 292.0 L 190.0 288.0 L 191.0 281.0 L 194.0 277.0 L 191.0 276.0 L 191.0 263.0 L 196.0 259.0 L 196.0 252.0 L 191.0 251.0 L 190.0 253.0 L 189.0 246.0 L 187.0 242.0 Z M 155.0 241.0 L 158.0 252.0 L 160.0 252.0 L 161.0 247.0 L 159.0 242.0 Z M 358.0 240.0 L 358.0 243.0 L 361.0 245.0 L 370.0 246.0 L 370.0 244.0 Z M 269.0 239.0 L 267.0 239.0 L 266.0 244.0 L 263.0 244.0 L 265.0 251.0 L 267.0 251.0 L 269.0 245.0 L 266.0 244.0 L 269.0 243.0 Z M 395.0 235.0 L 393.0 235.0 L 390.0 239.0 L 386.0 238.0 L 388.0 245.0 L 384.0 246.0 L 383.0 250.0 L 378.0 245.0 L 372.0 244.0 L 372.0 247.0 L 378.0 251.0 L 376.0 252.0 L 378.0 260.0 L 381.0 260.0 L 387.0 268.0 L 385.0 276.0 L 387.0 277.0 L 388.0 293.0 L 384.0 294.0 L 383.0 298.0 L 381.0 299.0 L 379.0 309.0 L 375.0 317.0 L 370.0 316.0 L 369.0 332.0 L 362.0 341.0 L 362.0 359.0 L 364.0 359.0 L 365.0 353.0 L 369.0 351.0 L 371.0 344.0 L 375.0 346.0 L 372.0 347.0 L 371.0 351.0 L 373.0 351.0 L 375.0 347.0 L 379.0 351.0 L 383.0 351.0 L 383.0 345.0 L 386.0 341.0 L 381.0 342.0 L 379.0 335.0 L 382.0 332.0 L 383.0 327.0 L 386.0 329.0 L 386.0 327.0 L 389.0 326.0 L 389.0 322.0 L 391.0 321.0 L 391.0 306.0 L 396.0 304.0 L 393.0 300.0 L 396.0 297.0 L 397.0 300.0 L 400.0 298.0 L 397.0 288.0 L 399.0 286.0 L 397.0 279.0 L 401.0 279.0 L 403.0 272.0 L 397.0 266.0 L 398.0 244.0 Z M 422.0 234.0 L 417.0 236.0 L 416.0 242.0 L 419.0 241.0 Z M 211.0 219.0 L 205.0 219.0 L 204.0 216.0 L 200.0 217.0 L 200.0 220.0 L 202.0 221.0 L 192.0 225.0 L 191.0 229.0 L 188.0 230.0 L 187.0 236.0 L 192.0 237.0 L 190.0 240.0 L 196.0 238.0 L 196.0 226.0 L 202.0 225.0 L 203.0 222.0 L 210.0 223.0 Z M 252.0 209.0 L 252.0 213.0 L 258.0 217.0 L 255.0 220.0 L 256.0 225.0 L 261.0 228.0 L 265.0 228.0 L 267.0 225.0 L 268.0 228.0 L 270.0 228.0 L 271.0 221.0 L 267.0 220.0 L 261.0 212.0 L 257.0 212.0 Z M 367.0 211.0 L 367.0 213.0 L 372.0 211.0 L 382.0 219.0 L 385.0 225.0 L 385.0 231.0 L 390.0 230.0 L 391.0 233.0 L 396.0 232.0 L 392.0 213.0 L 381.0 212.0 L 380.0 208.0 L 371.0 208.0 Z M 327.0 205.0 L 323.0 205.0 L 321.0 211.0 L 315.0 211.0 L 304.0 220.0 L 301.0 231.0 L 299.0 232.0 L 300.0 236.0 L 298.0 237.0 L 300.0 249.0 L 303.0 255.0 L 303.0 264.0 L 301.0 267.0 L 303.0 269.0 L 302.0 278.0 L 304.0 279.0 L 305.0 294.0 L 308.0 298.0 L 319.0 294.0 L 329.0 301.0 L 329.0 305.0 L 326.0 308.0 L 326.0 315.0 L 322.0 318.0 L 322.0 320.0 L 327.0 318.0 L 331.0 308.0 L 330.0 297.0 L 317.0 288.0 L 312.0 289.0 L 311.0 293.0 L 309.0 291.0 L 309.0 287.0 L 316.0 286.0 L 316.0 284.0 L 319.0 283.0 L 319.0 270.0 L 317.0 269.0 L 316.0 261.0 L 318.0 259.0 L 317.0 255.0 L 330.0 255.0 L 334.0 259.0 L 336.0 259.0 L 336.0 255.0 L 333.0 252.0 L 329.0 253.0 L 320.0 246.0 L 318.0 246.0 L 317.0 249.0 L 312.0 248.0 L 311.0 251.0 L 306.0 250.0 L 300.0 237.0 L 302.0 236.0 L 303.0 231.0 L 312.0 227.0 L 314.0 221.0 L 319.0 216.0 L 321.0 217.0 L 321.0 220.0 L 324.0 220.0 L 324.0 218.0 L 327.0 217.0 L 327.0 214.0 L 324.0 212.0 Z M 329.0 164.0 L 330.0 169.0 L 343.0 172.0 L 345.0 175.0 L 352.0 177.0 L 355.0 180.0 L 360.0 178.0 L 360.0 176.0 L 357.0 175.0 L 357.0 171.0 L 354.0 173.0 L 349.0 167.0 L 343.0 164.0 L 344.0 160.0 L 345.0 163.0 L 350.0 162.0 L 350.0 160.0 L 346.0 158.0 L 349.0 156.0 L 349.0 153.0 L 342.0 155.0 L 343.0 159.0 L 340.0 163.0 L 336.0 162.0 Z M 342.0 141.0 L 342.0 150.0 L 345.0 150.0 L 345.0 146.0 L 343.0 145.0 L 344.0 141.0 Z M 323.0 128.0 L 323.0 130.0 L 326.0 131.0 L 326.0 135.0 L 330.0 134.0 L 331.0 137.0 L 335.0 137.0 L 335.0 132.0 L 332.0 133.0 L 330.0 130.0 Z M 306.0 126.0 L 300.0 127.0 L 300.0 130.0 L 305.0 129.0 Z M 275.0 125.0 L 275.0 129.0 L 289.0 130.0 L 290.0 128.0 L 293.0 128.0 L 294.0 131.0 L 298.0 131.0 L 298.0 125.0 L 295.0 127.0 L 293.0 123.0 L 287.0 125.0 L 286.0 121.0 L 280.0 123.0 L 279.0 125.0 Z" fill="rgb(168, 104, 87)" fill-opacity="0.98"/><path d="M 251.0 539.0 L 253.0 547.0 L 255.0 547.0 L 256.0 551.0 L 259.0 552.0 L 258.0 548.0 L 255.0 547.0 L 254.0 540.0 Z M 344.0 520.0 L 343.0 535.0 L 347.0 536.0 L 346.0 541.0 L 349.0 541.0 L 352.0 534.0 L 346.0 533.0 L 347.0 523.0 L 346.0 520.0 Z M 344.0 510.0 L 342.0 515.0 L 346.0 518.0 L 346.0 510.0 Z M 242.0 503.0 L 244.0 506.0 L 243.0 509.0 L 245.0 510.0 L 244.0 514.0 L 247.0 515.0 L 247.0 518.0 L 244.0 520.0 L 244.0 522.0 L 246.0 522.0 L 252.0 518.0 L 252.0 513.0 L 249.0 511.0 L 247.0 504.0 Z M 231.0 492.0 L 231.0 497.0 L 235.0 498.0 L 236.0 501.0 L 240.0 501.0 L 242.0 499.0 L 240.0 496.0 L 242.0 495.0 L 242.0 491.0 L 236.0 491.0 L 234.0 495.0 L 233.0 492.0 Z M 225.0 470.0 L 224.0 478.0 L 233.0 481.0 L 232.0 484.0 L 229.0 484.0 L 228.0 489.0 L 237.0 488.0 L 238.0 485.0 L 244.0 487.0 L 244.0 485.0 L 238.0 482.0 L 237.0 479.0 L 234.0 481.0 L 233.0 477.0 L 235.0 476.0 L 234.0 471.0 Z M 314.0 466.0 L 314.0 468.0 L 320.0 469.0 L 320.0 465.0 Z M 250.0 450.0 L 252.0 454.0 L 257.0 453.0 L 257.0 460.0 L 262.0 459.0 L 257.0 450.0 Z M 331.0 451.0 L 329.0 449.0 L 325.0 449.0 L 322.0 451.0 L 322.0 453.0 L 325.0 454.0 L 324.0 455.0 L 315.0 453.0 L 313.0 455.0 L 313.0 459.0 L 317.0 463.0 L 320.0 463.0 L 324.0 457.0 L 330.0 457.0 Z M 222.0 446.0 L 219.0 448.0 L 220.0 454.0 L 222.0 455.0 L 220.0 458.0 L 224.0 463.0 L 222.0 464.0 L 222.0 468.0 L 229.0 468.0 L 229.0 460.0 L 226.0 458.0 L 226.0 453.0 L 224.0 451.0 L 226.0 446.0 Z M 243.0 441.0 L 243.0 444.0 L 247.0 444.0 L 248.0 447.0 L 251.0 448.0 L 249.0 440.0 Z M 226.0 439.0 L 224.0 439.0 L 221.0 444.0 L 227.0 444.0 Z M 341.0 438.0 L 335.0 439.0 L 334.0 447.0 L 339.0 444.0 Z M 229.0 437.0 L 229.0 439.0 L 232.0 440.0 L 232.0 443.0 L 234.0 443.0 L 234.0 436.0 Z M 358.0 428.0 L 357.0 431.0 L 351.0 431.0 L 351.0 433.0 L 362.0 435.0 L 358.0 438.0 L 360.0 441.0 L 357.0 442.0 L 357.0 446.0 L 355.0 447.0 L 352.0 445.0 L 351.0 448.0 L 355.0 451.0 L 361.0 452.0 L 356.0 453.0 L 356.0 455.0 L 361.0 456.0 L 358.0 458.0 L 360.0 461.0 L 356.0 463.0 L 356.0 467.0 L 364.0 470.0 L 362.0 474.0 L 364.0 477.0 L 357.0 487.0 L 360.0 487.0 L 361.0 483.0 L 363.0 483.0 L 364.0 487.0 L 366.0 487.0 L 369.0 484.0 L 369.0 480.0 L 373.0 475.0 L 375.0 475.0 L 375.0 473.0 L 373.0 472.0 L 374.0 469.0 L 371.0 468.0 L 372.0 463.0 L 368.0 463.0 L 367.0 466.0 L 364.0 462.0 L 371.0 457.0 L 371.0 454.0 L 369.0 453.0 L 370.0 448.0 L 367.0 448.0 L 367.0 452.0 L 365.0 453.0 L 365.0 448.0 L 362.0 447.0 L 367.0 440.0 L 368.0 434.0 Z M 275.0 416.0 L 280.0 418.0 L 279.0 414.0 L 287.0 412.0 L 287.0 410.0 L 278.0 409.0 L 275.0 411.0 Z M 289.0 408.0 L 290.0 411.0 L 295.0 412.0 L 295.0 409.0 Z M 323.0 378.0 L 319.0 379.0 L 318.0 383.0 L 313.0 384.0 L 313.0 387.0 L 317.0 389.0 L 316.0 392.0 L 295.0 394.0 L 295.0 396.0 L 307.0 399.0 L 309.0 404.0 L 312.0 403.0 L 315.0 405.0 L 317.0 412.0 L 325.0 408.0 L 324.0 404.0 L 326.0 403.0 L 326.0 401.0 L 322.0 401.0 L 320.0 399.0 L 323.0 398.0 L 323.0 395.0 L 320.0 393.0 L 326.0 388.0 L 325.0 382.0 L 322.0 381.0 Z M 235.0 376.0 L 235.0 387.0 L 247.0 391.0 L 246.0 398.0 L 251.0 404.0 L 249.0 408.0 L 252.0 409.0 L 254.0 414.0 L 259.0 414.0 L 257.0 404.0 L 261.0 400.0 L 261.0 396.0 L 257.0 392.0 L 259.0 390.0 L 261.0 390.0 L 263.0 394.0 L 266.0 394.0 L 267.0 392.0 L 266.0 388.0 L 263.0 387.0 L 263.0 380.0 L 257.0 379.0 L 257.0 381.0 L 254.0 382.0 L 253.0 387.0 L 252.0 381.0 L 248.0 376.0 L 243.0 379.0 L 243.0 381.0 L 246.0 382.0 L 243.0 385.0 L 237.0 383.0 L 236.0 380.0 L 238.0 379.0 L 238.0 376.0 Z M 254.0 395.0 L 258.0 398.0 L 253.0 402.0 L 251.0 400.0 Z M 225.0 366.0 L 225.0 370.0 L 227.0 371.0 L 226.0 374.0 L 230.0 374.0 L 229.0 369.0 Z M 365.0 328.0 L 360.0 331.0 L 359.0 336.0 L 351.0 342.0 L 351.0 345.0 L 355.0 345.0 L 357.0 341.0 L 362.0 340.0 L 363.0 335.0 L 365.0 334.0 Z M 300.0 318.0 L 296.0 317.0 L 293.0 321.0 L 299.0 321.0 Z M 328.0 316.0 L 326.0 321.0 L 323.0 322.0 L 324.0 327.0 L 329.0 329.0 L 330.0 333.0 L 338.0 333.0 L 338.0 331.0 L 331.0 329.0 L 330.0 325.0 L 327.0 324.0 L 330.0 316.0 Z M 255.0 307.0 L 255.0 311.0 L 259.0 319.0 L 262.0 319.0 L 260.0 309.0 Z M 375.0 304.0 L 371.0 305.0 L 368.0 315.0 L 371.0 315.0 L 374.0 312.0 L 376.0 307.0 Z M 332.0 300.0 L 334.0 303.0 L 333.0 308.0 L 335.0 308.0 L 336.0 302.0 Z M 378.0 287.0 L 377.0 299.0 L 378.0 302.0 L 380.0 302.0 L 382.0 292.0 L 380.0 291.0 L 381.0 287.0 Z M 194.0 282.0 L 196.0 285.0 L 196.0 292.0 L 198.0 293.0 L 197.0 297.0 L 200.0 311.0 L 203.0 312.0 L 203.0 317.0 L 209.0 317.0 L 209.0 320.0 L 211.0 321.0 L 211.0 329.0 L 217.0 328.0 L 219.0 330.0 L 216.0 335.0 L 219.0 336.0 L 218.0 340.0 L 223.0 346.0 L 220.0 347.0 L 223.0 351.0 L 221.0 357.0 L 226.0 357.0 L 228.0 355.0 L 226.0 350.0 L 228.0 349.0 L 228.0 346.0 L 224.0 343.0 L 227.0 342.0 L 227.0 340.0 L 224.0 339.0 L 221.0 329.0 L 215.0 319.0 L 208.0 316.0 L 208.0 308.0 L 204.0 304.0 L 203.0 298.0 L 200.0 297.0 L 202.0 295.0 L 202.0 293.0 L 199.0 292.0 L 200.0 287.0 L 197.0 282.0 Z M 198.0 268.0 L 194.0 268.0 L 192.0 276.0 L 194.0 276.0 L 194.0 274.0 L 198.0 271.0 Z M 349.0 264.0 L 348.0 268.0 L 352.0 269.0 L 353.0 273.0 L 355.0 273.0 L 355.0 270.0 L 352.0 269.0 L 353.0 265.0 Z M 317.0 261.0 L 319.0 264.0 L 325.0 263.0 L 324.0 260.0 L 321.0 262.0 L 320.0 260.0 Z M 196.0 260.0 L 197.0 265.0 L 201.0 266.0 L 201.0 262.0 Z M 373.0 259.0 L 373.0 263.0 L 384.0 266.0 L 381.0 261.0 Z M 261.0 252.0 L 261.0 254.0 L 270.0 253.0 L 272.0 255.0 L 272.0 265.0 L 275.0 269.0 L 271.0 274.0 L 271.0 276.0 L 274.0 277.0 L 272.0 287.0 L 279.0 289.0 L 279.0 270.0 L 282.0 262.0 L 280.0 256.0 L 282.0 252.0 L 274.0 254.0 L 274.0 249.0 L 267.0 252.0 Z M 293.0 246.0 L 293.0 248.0 L 300.0 253.0 L 298.0 246.0 Z M 272.0 220.0 L 274.0 230.0 L 270.0 230.0 L 268.0 235.0 L 270.0 238.0 L 275.0 238.0 L 276.0 236.0 L 281.0 241.0 L 278.0 247.0 L 282.0 248.0 L 283.0 239.0 L 281.0 234.0 L 278.0 232.0 L 274.0 220.0 Z M 337.0 174.0 L 340.0 180.0 L 346.0 181.0 L 348.0 179.0 L 350.0 181.0 L 354.0 181.0 L 352.0 178.0 L 342.0 178.0 L 341.0 174.0 Z M 227.0 152.0 L 224.0 152.0 L 224.0 154.0 L 221.0 155.0 L 222.0 159.0 L 224.0 159.0 L 227.0 155.0 Z M 317.0 151.0 L 315.0 151.0 L 315.0 155.0 L 312.0 156.0 L 312.0 158.0 L 316.0 159.0 L 311.0 161.0 L 308.0 160.0 L 310.0 164.0 L 313.0 162.0 L 315.0 164.0 L 320.0 163.0 L 320.0 156.0 L 318.0 155.0 Z M 316.0 144.0 L 314.0 144.0 L 313.0 147.0 L 310.0 145.0 L 305.0 149.0 L 305.0 151.0 L 310.0 148.0 L 311.0 150.0 L 315.0 149.0 Z M 321.0 139.0 L 321.0 141.0 L 318.0 142.0 L 318.0 144.0 L 321.0 145.0 L 320.0 151.0 L 332.0 156.0 L 324.0 143.0 L 321.0 145.0 L 320.0 142.0 L 323.0 141.0 L 323.0 139.0 Z M 301.0 135.0 L 301.0 139.0 L 303.0 140.0 L 304.0 144.0 L 308.0 145.0 L 312.0 141.0 L 312.0 139.0 L 309.0 141.0 Z M 268.0 135.0 L 268.0 137.0 L 271.0 137.0 L 272.0 140.0 L 277.0 143.0 L 277.0 141.0 L 274.0 140.0 L 275.0 136.0 Z M 277.0 136.0 L 277.0 139.0 L 282.0 140.0 L 283.0 143.0 L 286.0 143.0 L 286.0 141.0 L 282.0 140.0 L 286.0 139.0 L 287.0 136.0 L 288.0 140.0 L 292.0 144.0 L 295.0 143.0 L 301.0 147.0 L 299.0 143.0 L 295.0 142.0 L 295.0 139.0 L 291.0 138.0 L 291.0 134.0 L 287.0 134.0 L 286.0 136.0 Z" fill="rgb(173, 113, 99)" fill-opacity="0.98"/><path d="M 314.0 569.0 L 311.0 569.0 L 311.0 571.0 L 307.0 572.0 L 306.0 574.0 L 300.0 573.0 L 300.0 575.0 L 307.0 579.0 L 312.0 575.0 Z M 336.0 514.0 L 334.0 514.0 L 333.0 517.0 L 335.0 524.0 L 338.0 525.0 L 335.0 533.0 L 337.0 539.0 L 339.0 540.0 L 336.0 541.0 L 337.0 544.0 L 333.0 550.0 L 333.0 555.0 L 345.0 546.0 L 341.0 540.0 L 342.0 535.0 L 339.0 534.0 L 343.0 530.0 L 342.0 524.0 L 340.0 523.0 Z M 307.0 494.0 L 307.0 497.0 L 310.0 498.0 L 306.0 499.0 L 306.0 501.0 L 312.0 500.0 L 310.0 495.0 Z M 301.0 501.0 L 290.0 499.0 L 293.0 496.0 L 292.0 490.0 L 287.0 492.0 L 286.0 495.0 L 283.0 489.0 L 280.0 489.0 L 282.0 499.0 L 279.0 499.0 L 278.0 497.0 L 274.0 497.0 L 273.0 499.0 L 272.0 497.0 L 267.0 497.0 L 265.0 494.0 L 263.0 494.0 L 261.0 498.0 L 260.0 495.0 L 253.0 494.0 L 254.0 497.0 L 258.0 498.0 L 256.0 499.0 L 256.0 503.0 L 252.0 505.0 L 252.0 512.0 L 254.0 516.0 L 259.0 516.0 L 258.0 520.0 L 257.0 518.0 L 254.0 518.0 L 254.0 520.0 L 256.0 520.0 L 257.0 523.0 L 260.0 523.0 L 261.0 516.0 L 258.0 515.0 L 257.0 509.0 L 255.0 508.0 L 258.0 506.0 L 259.0 509.0 L 261.0 509.0 L 262.0 506.0 L 260.0 506.0 L 260.0 504.0 L 269.0 504.0 L 270.0 506.0 L 275.0 505.0 L 275.0 500.0 L 277.0 499.0 L 278.0 505.0 L 285.0 505.0 L 288.0 502.0 L 290.0 508.0 L 292.0 508.0 L 292.0 503.0 L 295.0 503.0 L 296.0 506.0 L 301.0 506.0 Z M 312.0 484.0 L 312.0 487.0 L 309.0 488.0 L 311.0 493.0 L 321.0 495.0 L 322.0 498.0 L 325.0 498.0 L 325.0 495.0 L 328.0 494.0 L 328.0 492.0 L 325.0 494.0 L 322.0 491.0 L 317.0 490.0 L 320.0 487.0 L 326.0 488.0 L 326.0 485.0 L 322.0 486.0 L 321.0 484.0 Z M 266.0 484.0 L 267.0 492.0 L 274.0 494.0 L 274.0 491.0 L 270.0 489.0 L 271.0 485.0 Z M 307.0 476.0 L 307.0 479.0 L 310.0 482.0 L 317.0 482.0 L 319.0 480.0 L 319.0 478.0 L 316.0 480.0 L 312.0 478.0 L 311.0 480.0 L 309.0 476.0 Z M 270.0 473.0 L 266.0 476.0 L 265.0 482.0 L 267.0 482.0 L 268.0 478.0 L 270.0 477.0 Z M 356.0 468.0 L 350.0 469.0 L 351.0 472.0 L 346.0 473.0 L 346.0 475.0 L 341.0 478.0 L 337.0 484.0 L 336.0 482.0 L 329.0 482.0 L 331.0 485.0 L 328.0 486.0 L 328.0 489.0 L 331.0 489.0 L 333.0 486.0 L 333.0 491.0 L 336.0 492.0 L 335.0 494.0 L 332.0 494.0 L 335.0 500.0 L 333.0 501.0 L 333.0 506.0 L 335.0 506.0 L 336.0 503.0 L 339.0 503.0 L 342.0 499.0 L 343.0 503.0 L 345.0 504.0 L 342.0 505.0 L 341.0 509.0 L 340.0 505.0 L 338.0 505.0 L 338.0 513.0 L 340.0 513.0 L 342.0 508.0 L 345.0 509.0 L 348.0 505.0 L 347.0 497.0 L 343.0 496.0 L 346.0 489.0 L 342.0 488.0 L 349.0 486.0 L 350.0 481.0 L 353.0 478.0 L 351.0 473.0 L 354.0 470.0 L 355.0 473.0 L 357.0 473.0 Z M 331.0 464.0 L 332.0 468.0 L 337.0 468.0 L 340.0 464.0 L 341.0 467.0 L 348.0 466.0 L 348.0 463.0 L 340.0 462.0 L 344.0 461.0 L 344.0 459.0 L 335.0 459.0 L 334.0 463.0 Z M 237.0 459.0 L 236.0 463.0 L 238.0 464.0 L 239.0 472.0 L 244.0 473.0 L 239.0 474.0 L 239.0 477.0 L 242.0 478.0 L 242.0 482.0 L 247.0 483.0 L 249.0 481.0 L 253.0 482.0 L 254.0 485.0 L 258.0 485.0 L 258.0 482.0 L 253.0 480.0 L 256.0 479.0 L 254.0 475.0 L 252.0 475.0 L 254.0 478.0 L 253.0 480.0 L 247.0 478.0 L 250.0 476.0 L 250.0 473.0 L 245.0 471.0 L 248.0 470.0 L 248.0 468.0 L 243.0 468.0 L 241.0 464.0 L 247.0 463.0 L 247.0 461.0 Z M 352.0 452.0 L 346.0 453.0 L 345.0 457.0 L 349.0 457.0 Z M 259.0 406.0 L 261.0 406.0 L 263.0 402.0 L 265.0 403.0 L 265.0 410.0 L 264.0 411.0 L 263.0 408.0 L 261.0 408.0 L 264.0 417.0 L 274.0 415.0 L 272.0 412.0 L 273.0 409.0 L 280.0 407.0 L 281.0 404.0 L 282.0 409.0 L 288.0 408.0 L 290.0 404.0 L 293.0 408.0 L 297.0 407.0 L 301.0 413.0 L 303.0 413.0 L 304.0 409.0 L 306.0 410.0 L 306.0 414.0 L 311.0 415.0 L 312.0 406.0 L 301.0 406.0 L 300.0 405.0 L 303.0 404.0 L 303.0 400.0 L 297.0 397.0 L 283.0 397.0 L 282.0 399.0 L 263.0 397.0 L 263.0 400.0 L 260.0 401.0 Z M 313.0 376.0 L 313.0 381.0 L 318.0 382.0 L 316.0 376.0 Z M 265.0 374.0 L 263.0 379.0 L 269.0 384.0 L 267.0 385.0 L 267.0 388.0 L 275.0 388.0 L 275.0 385.0 L 270.0 383.0 L 271.0 378.0 Z M 268.0 354.0 L 268.0 357.0 L 276.0 359.0 L 273.0 352.0 Z M 244.0 346.0 L 237.0 347.0 L 236.0 353.0 L 243.0 349.0 Z M 330.0 344.0 L 330.0 347.0 L 333.0 346.0 L 334.0 350.0 L 338.0 348.0 L 338.0 345.0 L 335.0 345.0 L 334.0 347.0 L 333.0 344.0 Z M 321.0 342.0 L 320.0 346.0 L 322.0 346.0 L 325.0 351.0 L 328.0 351.0 L 324.0 342.0 Z M 254.0 340.0 L 247.0 343.0 L 249.0 349.0 L 251.0 349.0 L 251.0 345.0 Z M 359.0 331.0 L 353.0 332.0 L 353.0 336.0 L 350.0 337.0 L 350.0 340.0 L 354.0 339.0 L 355.0 336.0 L 358.0 335.0 Z M 266.0 323.0 L 263.0 323.0 L 263.0 328.0 L 260.0 332.0 L 266.0 328.0 Z M 208.0 305.0 L 209.0 311.0 L 212.0 312.0 L 209.0 313.0 L 209.0 315.0 L 215.0 315.0 L 216.0 313.0 L 218.0 320.0 L 220.0 320.0 L 219.0 314.0 L 216.0 313.0 L 214.0 308.0 L 211.0 308.0 L 210.0 305.0 Z M 266.0 271.0 L 266.0 286.0 L 269.0 286.0 L 271.0 284.0 L 270.0 280.0 L 273.0 279.0 L 273.0 277.0 L 271.0 277.0 L 270.0 273.0 Z M 261.0 255.0 L 261.0 258.0 L 264.0 258.0 L 265.0 262.0 L 269.0 262.0 L 270.0 258.0 L 266.0 259.0 L 265.0 256.0 Z M 290.0 248.0 L 291.0 253.0 L 295.0 255.0 L 295.0 251.0 Z M 255.0 245.0 L 251.0 245.0 L 248.0 249.0 L 255.0 248.0 Z M 295.0 231.0 L 291.0 234.0 L 291.0 241.0 L 294.0 241.0 Z M 262.0 206.0 L 262.0 209.0 L 269.0 211.0 L 270.0 217.0 L 275.0 219.0 L 275.0 217.0 L 272.0 216.0 L 272.0 212.0 L 269.0 211.0 L 268.0 206.0 L 265.0 208.0 Z M 221.0 178.0 L 219.0 181.0 L 219.0 186.0 L 228.0 192.0 L 228.0 189.0 L 222.0 183.0 L 226.0 181.0 L 226.0 178.0 Z M 275.0 157.0 L 275.0 160.0 L 281.0 161.0 L 282.0 158.0 L 283.0 163.0 L 285.0 163.0 L 286.0 158.0 L 289.0 168.0 L 293.0 170.0 L 298.0 169.0 L 298.0 165.0 L 294.0 165.0 L 289.0 160.0 L 291.0 157.0 L 289.0 154.0 L 286.0 154.0 L 284.0 158.0 L 283.0 155.0 Z M 238.0 152.0 L 241.0 158.0 L 238.0 162.0 L 241.0 165.0 L 245.0 165.0 L 246.0 159.0 L 251.0 158.0 L 251.0 156.0 L 246.0 153.0 L 241.0 155.0 L 240.0 152.0 Z M 242.0 141.0 L 242.0 144.0 L 245.0 145.0 L 244.0 151.0 L 247.0 151.0 L 247.0 144.0 Z M 246.0 140.0 L 250.0 147.0 L 252.0 147.0 L 254.0 142.0 L 258.0 148.0 L 256.0 149.0 L 256.0 152.0 L 259.0 152.0 L 264.0 156.0 L 258.0 157.0 L 257.0 155.0 L 253.0 155.0 L 254.0 158.0 L 257.0 157.0 L 258.0 159.0 L 266.0 160.0 L 267.0 152.0 L 273.0 154.0 L 272.0 150.0 L 266.0 149.0 L 271.0 148.0 L 271.0 146.0 L 265.0 146.0 L 264.0 148.0 L 263.0 142.0 L 260.0 142.0 L 258.0 145.0 L 257.0 140.0 L 252.0 140.0 L 249.0 143.0 L 248.0 140.0 Z" fill="rgb(179, 124, 114)" fill-opacity="0.98"/><path d="M 262.0 511.0 L 264.0 520.0 L 266.0 521.0 L 261.0 524.0 L 258.0 530.0 L 255.0 527.0 L 253.0 527.0 L 253.0 529.0 L 257.0 535.0 L 257.0 539.0 L 259.0 539.0 L 260.0 543.0 L 264.0 545.0 L 264.0 550.0 L 266.0 550.0 L 268.0 555.0 L 273.0 557.0 L 275.0 560.0 L 282.0 561.0 L 295.0 570.0 L 305.0 573.0 L 316.0 564.0 L 323.0 563.0 L 323.0 561.0 L 329.0 556.0 L 329.0 553.0 L 332.0 552.0 L 332.0 546.0 L 335.0 545.0 L 335.0 539.0 L 332.0 535.0 L 334.0 533.0 L 334.0 529.0 L 330.0 524.0 L 332.0 519.0 L 327.0 517.0 L 329.0 516.0 L 327.0 509.0 L 323.0 510.0 L 320.0 514.0 L 319.0 507.0 L 317.0 507.0 L 318.0 511.0 L 316.0 513.0 L 311.0 513.0 L 312.0 508.0 L 306.0 506.0 L 305.0 510.0 L 308.0 511.0 L 307.0 515.0 L 302.0 518.0 L 293.0 519.0 L 287.0 515.0 L 281.0 516.0 L 280.0 518.0 L 279.0 515.0 L 275.0 515.0 L 274.0 511.0 L 272.0 510.0 Z M 307.0 518.0 L 324.0 516.0 L 326.0 519.0 L 317.0 523.0 L 313.0 522.0 L 312.0 519.0 L 308.0 520.0 Z M 323.0 475.0 L 323.0 477.0 L 334.0 476.0 L 334.0 473.0 L 325.0 473.0 Z M 312.0 367.0 L 309.0 367.0 L 308.0 369.0 L 280.0 368.0 L 274.0 370.0 L 276.0 375.0 L 283.0 376.0 L 284.0 378.0 L 280.0 380.0 L 273.0 378.0 L 273.0 380.0 L 276.0 381.0 L 272.0 382.0 L 272.0 384.0 L 293.0 386.0 L 312.0 383.0 L 312.0 381.0 L 309.0 381.0 L 303.0 377.0 L 307.0 375.0 L 311.0 378.0 Z M 295.0 371.0 L 296.0 375.0 L 299.0 376.0 L 296.0 380.0 L 291.0 378.0 L 293.0 377.0 Z M 255.0 352.0 L 256.0 355.0 L 262.0 355.0 L 264.0 353.0 L 268.0 353.0 L 269.0 349.0 L 270.0 351.0 L 274.0 351.0 L 275.0 355.0 L 286.0 356.0 L 289.0 352.0 L 297.0 354.0 L 298.0 351.0 L 300.0 355.0 L 302.0 355.0 L 303.0 352.0 L 304.0 354.0 L 311.0 355.0 L 311.0 353.0 L 307.0 352.0 L 309.0 350.0 L 321.0 350.0 L 321.0 348.0 L 301.0 341.0 L 296.0 347.0 L 282.0 344.0 L 281.0 347.0 L 276.0 348.0 L 276.0 345.0 L 280.0 345.0 L 279.0 341.0 L 276.0 341.0 L 257.0 348.0 Z M 288.0 323.0 L 289.0 327.0 L 293.0 328.0 L 297.0 325.0 L 297.0 323.0 Z M 273.0 315.0 L 275.0 321.0 L 282.0 322.0 L 282.0 317.0 L 279.0 319.0 Z M 283.0 308.0 L 283.0 311.0 L 290.0 315.0 L 294.0 315.0 L 296.0 313.0 L 299.0 314.0 L 302.0 310.0 L 302.0 308.0 L 290.0 305.0 L 289.0 309.0 Z M 312.0 302.0 L 314.0 306.0 L 321.0 306.0 L 324.0 304.0 L 323.0 301.0 Z M 168.0 299.0 L 164.0 298.0 L 159.0 306.0 L 163.0 305.0 L 164.0 301.0 L 168.0 302.0 Z M 379.0 270.0 L 374.0 270.0 L 373.0 272.0 L 366.0 271.0 L 366.0 275.0 L 369.0 275.0 L 370.0 273.0 L 371.0 277.0 L 373.0 277.0 L 375.0 273.0 L 376.0 275.0 L 379.0 275.0 Z M 327.0 267.0 L 327.0 273.0 L 323.0 284.0 L 327.0 288.0 L 332.0 287.0 L 335.0 291.0 L 340.0 292.0 L 340.0 296.0 L 348.0 303.0 L 348.0 312.0 L 345.0 313.0 L 342.0 311.0 L 341.0 313.0 L 337.0 314.0 L 337.0 317.0 L 340.0 317.0 L 341.0 321.0 L 343.0 322.0 L 341.0 323.0 L 341.0 327.0 L 345.0 326.0 L 346.0 324.0 L 347.0 327.0 L 356.0 327.0 L 358.0 325.0 L 356.0 319.0 L 359.0 311.0 L 362.0 313.0 L 361.0 307.0 L 364.0 306.0 L 373.0 292.0 L 373.0 286.0 L 370.0 285.0 L 373.0 284.0 L 373.0 282.0 L 369.0 283.0 L 367.0 280.0 L 364.0 280.0 L 363.0 282.0 L 359.0 281.0 L 358.0 283.0 L 356.0 277.0 L 353.0 277.0 L 348.0 273.0 L 343.0 273.0 L 342.0 271.0 L 339.0 272.0 L 333.0 266.0 Z M 340.0 316.0 L 344.0 316.0 L 347.0 319.0 L 344.0 321.0 Z M 212.0 256.0 L 208.0 259.0 L 209.0 266.0 L 213.0 267.0 L 213.0 270.0 L 216.0 271.0 L 214.0 274.0 L 211.0 273.0 L 205.0 276.0 L 206.0 283.0 L 203.0 284.0 L 206.0 294.0 L 209.0 297.0 L 209.0 303.0 L 216.0 308.0 L 220.0 314.0 L 220.0 317.0 L 222.0 317.0 L 225.0 321.0 L 225.0 328.0 L 231.0 335.0 L 230.0 342.0 L 232.0 345.0 L 240.0 345.0 L 243.0 342.0 L 246.0 343.0 L 249.0 338.0 L 255.0 338.0 L 256.0 333.0 L 260.0 329.0 L 260.0 324.0 L 253.0 309.0 L 253.0 302.0 L 250.0 301.0 L 255.0 293.0 L 260.0 292.0 L 263.0 284.0 L 265.0 283.0 L 265.0 280.0 L 260.0 278.0 L 263.0 277.0 L 263.0 271.0 L 260.0 270.0 L 264.0 269.0 L 264.0 267.0 L 262.0 266.0 L 262.0 263.0 L 257.0 263.0 L 251.0 265.0 L 250.0 267.0 L 249.0 264.0 L 244.0 264.0 L 243.0 267.0 L 237.0 270.0 L 233.0 267.0 L 233.0 265.0 L 230.0 265.0 L 226.0 270.0 L 225.0 267.0 L 221.0 267.0 L 219.0 265.0 L 220.0 258.0 L 226.0 259.0 L 226.0 255.0 Z M 239.0 310.0 L 246.0 313.0 L 249.0 318.0 L 244.0 319.0 L 241.0 325.0 L 237.0 322.0 Z M 246.0 297.0 L 248.0 298.0 L 248.0 301.0 L 251.0 302.0 L 248.0 306.0 L 243.0 303.0 Z M 229.0 285.0 L 245.0 289.0 L 244.0 292.0 L 236.0 294.0 L 238.0 301.0 L 235.0 303.0 L 237.0 306.0 L 235.0 307.0 L 236.0 311.0 L 234.0 314.0 L 232.0 313.0 L 232.0 309.0 L 229.0 308.0 L 228.0 302.0 L 224.0 301.0 L 224.0 299.0 L 228.0 298.0 L 230.0 294.0 L 226.0 293.0 L 225.0 295.0 L 220.0 295.0 L 220.0 293.0 L 223.0 292.0 L 223.0 290.0 Z M 228.0 258.0 L 240.0 255.0 L 243.0 256.0 L 243.0 254.0 L 229.0 254.0 Z M 363.0 249.0 L 351.0 250.0 L 350.0 252.0 L 346.0 253.0 L 343.0 258.0 L 356.0 260.0 L 357.0 258.0 L 364.0 258.0 L 362.0 252.0 Z M 285.0 248.0 L 288.0 258.0 L 286.0 259.0 L 286.0 272.0 L 289.0 273.0 L 285.0 278.0 L 287.0 285.0 L 284.0 286.0 L 281.0 299.0 L 270.0 300.0 L 269.0 304.0 L 267.0 303.0 L 268.0 300.0 L 263.0 300.0 L 260.0 302.0 L 260.0 305.0 L 272.0 306.0 L 274.0 304.0 L 278.0 304.0 L 282.0 306.0 L 283.0 300.0 L 289.0 297.0 L 291.0 303.0 L 301.0 301.0 L 304.0 307.0 L 306.0 307.0 L 306.0 301.0 L 299.0 292.0 L 298.0 281.0 L 295.0 279.0 L 296.0 276.0 L 294.0 275.0 L 296.0 274.0 L 297.0 268.0 L 294.0 266.0 L 288.0 248.0 Z M 420.0 242.0 L 419.0 255.0 L 421.0 258.0 L 425.0 258.0 L 422.0 251.0 L 422.0 242.0 Z M 212.0 210.0 L 215.0 217.0 L 221.0 213.0 L 226.0 214.0 L 227.0 216.0 L 244.0 216.0 L 244.0 209.0 L 229.0 204.0 L 222.0 204.0 L 221.0 206.0 L 217.0 206.0 L 215.0 210.0 Z M 363.0 208.0 L 362.0 204.0 L 353.0 202.0 L 352.0 199.0 L 338.0 202.0 L 335.0 205.0 L 337.0 209.0 L 360.0 210.0 Z M 250.0 189.0 L 250.0 194.0 L 253.0 194.0 L 254.0 197.0 L 257.0 198.0 L 257.0 195.0 L 254.0 195.0 L 253.0 193.0 L 258.0 193.0 L 258.0 190.0 Z M 235.0 176.0 L 232.0 180.0 L 232.0 184.0 L 237.0 187.0 L 237.0 190.0 L 247.0 188.0 L 246.0 184.0 L 251.0 180.0 L 271.0 189.0 L 271.0 192.0 L 260.0 192.0 L 261.0 199.0 L 266.0 200.0 L 271.0 210.0 L 274.0 211.0 L 281.0 229.0 L 284.0 232.0 L 286.0 246.0 L 289.0 246.0 L 288.0 239.0 L 290.0 237.0 L 287.0 233.0 L 295.0 229.0 L 301.0 219.0 L 302.0 214.0 L 307.0 211.0 L 308.0 207.0 L 309.0 209.0 L 315.0 207.0 L 315.0 205.0 L 311.0 204.0 L 312.0 198.0 L 313.0 202.0 L 315.0 202.0 L 319.0 197.0 L 319.0 194.0 L 317.0 193.0 L 324.0 192.0 L 325.0 189.0 L 333.0 187.0 L 333.0 185.0 L 330.0 184.0 L 334.0 182.0 L 334.0 179.0 L 329.0 179.0 L 328.0 177.0 L 325.0 178.0 L 316.0 175.0 L 315.0 178.0 L 314.0 174.0 L 290.0 174.0 L 287.0 168.0 L 284.0 168.0 L 283.0 170.0 L 275.0 169.0 L 274.0 171.0 L 268.0 170.0 L 267.0 175.0 L 265.0 171.0 L 255.0 168.0 L 253.0 175.0 L 252.0 173.0 L 247.0 172.0 L 240.0 177.0 Z" fill="rgb(195, 137, 122)" fill-opacity="0.98"/><path d="M 191.0 548.0 L 191.0 554.0 L 201.0 557.0 L 214.0 556.0 L 216.0 550.0 L 224.0 550.0 L 227.0 553.0 L 234.0 552.0 L 234.0 549.0 L 225.0 546.0 L 217.0 546.0 L 216.0 548.0 L 211.0 542.0 Z M 155.0 476.0 L 151.0 476.0 L 152.0 495.0 L 150.0 496.0 L 150.0 504.0 L 146.0 508.0 L 145.0 525.0 L 140.0 535.0 L 142.0 546.0 L 146.0 543.0 L 148.0 533.0 L 153.0 530.0 L 153.0 526.0 L 149.0 525.0 L 152.0 524.0 L 153.0 520.0 L 157.0 520.0 L 157.0 506.0 L 164.0 507.0 L 165.0 504.0 L 160.0 481.0 Z M 449.0 465.0 L 446.0 465.0 L 446.0 469.0 L 443.0 470.0 L 441.0 476.0 L 440.0 550.0 L 437.0 551.0 L 440.0 556.0 L 443.0 556.0 L 447.0 549.0 L 446.0 538.0 L 449.0 537.0 L 452.0 508.0 L 450.0 504.0 L 451.0 485.0 L 448.0 476.0 L 451.0 472.0 Z M 172.0 444.0 L 168.0 445.0 L 164.0 451.0 L 163.0 469.0 L 168.0 467.0 Z M 172.0 415.0 L 69.0 449.0 L 64.0 453.0 L 58.0 453.0 L 50.0 458.0 L 15.0 470.0 L 3.0 476.0 L 2.0 479.0 L 25.0 471.0 L 28.0 467.0 L 64.0 457.0 L 94.0 445.0 L 112.0 442.0 L 125.0 433.0 L 138.0 431.0 L 139.0 428.0 L 148.0 429.0 L 149.0 431.0 L 146.0 434.0 L 149.0 434.0 L 150.0 431.0 L 168.0 429.0 L 173.0 425.0 L 173.0 421.0 L 169.0 420.0 Z M 169.0 421.0 L 165.0 426.0 L 158.0 429.0 L 156.0 427.0 L 148.0 428.0 L 150.0 424.0 L 158.0 423.0 L 160.0 420.0 Z M 409.0 409.0 L 420.0 427.0 L 423.0 428.0 L 423.0 432.0 L 426.0 433.0 L 426.0 437.0 L 429.0 438.0 L 431.0 444.0 L 437.0 442.0 L 440.0 444.0 L 442.0 439.0 L 438.0 436.0 L 453.0 439.0 L 475.0 456.0 L 486.0 458.0 L 487.0 455.0 L 497.0 456.0 L 498.0 454.0 L 505.0 461.0 L 511.0 459.0 L 512.0 462.0 L 518.0 464.0 L 521.0 462.0 L 523.0 466.0 L 535.0 469.0 L 537.0 472.0 L 540.0 471.0 L 580.0 483.0 L 581.0 486.0 L 590.0 488.0 L 592.0 491.0 L 595.0 489.0 L 599.0 493.0 L 599.0 486.0 L 554.0 469.0 L 460.0 428.0 Z M 284.0 300.0 L 283.0 307.0 L 289.0 308.0 L 290.0 302.0 Z M 239.0 257.0 L 221.0 262.0 L 221.0 265.0 L 236.0 263.0 Z M 218.0 231.0 L 217.0 238.0 L 225.0 240.0 L 221.0 231.0 Z M 244.0 228.0 L 242.0 228.0 L 244.0 234.0 L 240.0 235.0 L 240.0 238.0 L 245.0 237.0 L 248.0 231.0 L 244.0 231.0 Z M 358.0 221.0 L 356.0 232.0 L 363.0 229.0 L 363.0 224.0 Z" fill="rgb(197, 187, 196)" fill-opacity="0.98"/><path d="M 258.0 566.0 L 258.0 569.0 L 265.0 575.0 L 265.0 569.0 Z M 190.0 559.0 L 190.0 562.0 L 200.0 563.0 L 200.0 559.0 L 194.0 561.0 Z M 225.0 555.0 L 225.0 558.0 L 235.0 560.0 L 235.0 558.0 Z M 221.0 554.0 L 216.0 554.0 L 212.0 560.0 L 202.0 560.0 L 202.0 563.0 L 220.0 560.0 Z M 180.0 550.0 L 182.0 562.0 L 188.0 562.0 L 188.0 559.0 L 183.0 556.0 L 185.0 552.0 Z M 149.0 549.0 L 144.0 549.0 L 141.0 557.0 L 139.0 555.0 L 140.0 551.0 L 137.0 551.0 L 137.0 561.0 L 145.0 561.0 L 145.0 555.0 L 149.0 553.0 Z M 147.0 541.0 L 146.0 546.0 L 151.0 547.0 L 153.0 542.0 Z M 152.0 532.0 L 154.0 540.0 L 157.0 540.0 L 159.0 536.0 L 163.0 536.0 L 163.0 533.0 Z M 462.0 532.0 L 459.0 532.0 L 457.0 536.0 L 454.0 529.0 L 452.0 529.0 L 451.0 547.0 L 448.0 548.0 L 447.0 558.0 L 437.0 561.0 L 435.0 556.0 L 430.0 556.0 L 430.0 561.0 L 432.0 563.0 L 442.0 563.0 L 447.0 561.0 L 448.0 557.0 L 464.0 558.0 L 468.0 556.0 L 460.0 550.0 Z M 145.0 510.0 L 139.0 510.0 L 140.0 517.0 L 134.0 521.0 L 129.0 519.0 L 126.0 525.0 L 126.0 536.0 L 134.0 536.0 L 131.0 525.0 L 135.0 521.0 L 138.0 522.0 L 133.0 553.0 L 135.0 553.0 L 136.0 548.0 L 141.0 547.0 L 137.0 544.0 L 141.0 532.0 L 141.0 518.0 Z M 462.0 507.0 L 458.0 507.0 L 456.0 512.0 L 452.0 511.0 L 452.0 517.0 L 457.0 519.0 L 454.0 526.0 L 460.0 526.0 L 457.0 523.0 L 461.0 522.0 L 458.0 516.0 Z M 105.0 498.0 L 101.0 498.0 L 103.0 505.0 L 95.0 506.0 L 95.0 508.0 L 104.0 508.0 Z M 516.0 498.0 L 518.0 504.0 L 523.0 503.0 L 523.0 508.0 L 527.0 506.0 L 534.0 508.0 L 529.0 503.0 L 523.0 503.0 L 520.0 497.0 Z M 24.0 492.0 L 19.0 493.0 L 16.0 498.0 L 24.0 498.0 Z M 497.0 496.0 L 497.0 499.0 L 505.0 501.0 L 508.0 497.0 L 512.0 498.0 L 512.0 491.0 L 503.0 490.0 L 502.0 495.0 Z M 85.0 490.0 L 85.0 497.0 L 93.0 498.0 L 91.0 490.0 Z M 487.0 482.0 L 482.0 484.0 L 481.0 495.0 L 489.0 487.0 Z M 394.0 480.0 L 390.0 481.0 L 385.0 487.0 L 374.0 508.0 L 374.0 512.0 L 369.0 517.0 L 368.0 523.0 L 361.0 529.0 L 352.0 543.0 L 332.0 561.0 L 344.0 556.0 L 347.0 551.0 L 356.0 549.0 L 357.0 542.0 L 360.0 541.0 L 362.0 535.0 L 369.0 534.0 L 374.0 514.0 L 377.0 513.0 L 380.0 504.0 L 384.0 500.0 L 384.0 495.0 L 391.0 490.0 Z M 14.0 476.0 L 11.0 479.0 L 7.0 478.0 L 1.0 481.0 L 0.0 485.0 L 3.0 483.0 L 7.0 486.0 L 1.0 502.0 L 5.0 502.0 L 6.0 498.0 L 9.0 498.0 L 13.0 493.0 L 17.0 493.0 L 17.0 488.0 L 10.0 485.0 Z M 515.0 486.0 L 515.0 490.0 L 519.0 489.0 L 522.0 496.0 L 526.0 493.0 L 534.0 496.0 L 529.0 498.0 L 529.0 501.0 L 535.0 502.0 L 536.0 498.0 L 547.0 498.0 L 552.0 502.0 L 563.0 503.0 L 560.0 505.0 L 559.0 511.0 L 558.0 505.0 L 553.0 504.0 L 555.0 509.0 L 552.0 510.0 L 552.0 513.0 L 556.0 511.0 L 557.0 513.0 L 561.0 512.0 L 569.0 515.0 L 566.0 516.0 L 564.0 525.0 L 567.0 526.0 L 564.0 527.0 L 566.0 531.0 L 564.0 539.0 L 567.0 539.0 L 568.0 536.0 L 569.0 539.0 L 573.0 539.0 L 573.0 536.0 L 569.0 533.0 L 573.0 532.0 L 576.0 527.0 L 580.0 527.0 L 580.0 523.0 L 582.0 527.0 L 588.0 528.0 L 592.0 519.0 L 597.0 515.0 L 599.0 516.0 L 599.0 506.0 L 594.0 507.0 L 593.0 505.0 L 584.0 508.0 L 581.0 515.0 L 577.0 513.0 L 580.0 512.0 L 582.0 506.0 L 579.0 505.0 L 580.0 502.0 L 573.0 499.0 L 569.0 491.0 L 582.0 489.0 L 582.0 487.0 L 574.0 486.0 L 571.0 488.0 L 570.0 484.0 L 566.0 486.0 L 564.0 482.0 L 561.0 482.0 L 562.0 491.0 L 557.0 491.0 L 556.0 495.0 L 552.0 492.0 L 548.0 497.0 L 547.0 493.0 L 543.0 495.0 L 533.0 487.0 L 539.0 485.0 L 539.0 483.0 L 534.0 482.0 L 537.0 477.0 L 535.0 474.0 L 529.0 476.0 L 529.0 484.0 L 531.0 485.0 L 529.0 488.0 L 525.0 488.0 L 524.0 491.0 L 521.0 485.0 Z M 511.0 469.0 L 511.0 476.0 L 523.0 473.0 L 523.0 471.0 L 515.0 470.0 L 514.0 472.0 Z M 170.0 468.0 L 168.0 468.0 L 166.0 476.0 L 162.0 477.0 L 165.0 481.0 L 161.0 484.0 L 164.0 494.0 L 167.0 490.0 Z M 111.0 489.0 L 111.0 486.0 L 100.0 480.0 L 100.0 476.0 L 94.0 477.0 L 93.0 482.0 L 82.0 476.0 L 85.0 480.0 L 79.0 483.0 L 73.0 478.0 L 75.0 470.0 L 72.0 469.0 L 72.0 466.0 L 70.0 466.0 L 72.0 475.0 L 68.0 478.0 L 68.0 481.0 L 71.0 482.0 L 66.0 484.0 L 63.0 489.0 L 60.0 489.0 L 57.0 485.0 L 56.0 489.0 L 52.0 487.0 L 49.0 491.0 L 43.0 481.0 L 37.0 484.0 L 36.0 481.0 L 27.0 482.0 L 22.0 478.0 L 19.0 478.0 L 19.0 482.0 L 16.0 484.0 L 16.0 486.0 L 19.0 486.0 L 23.0 482.0 L 28.0 486.0 L 37.0 487.0 L 38.0 490.0 L 33.0 495.0 L 49.0 493.0 L 52.0 498.0 L 66.0 493.0 L 76.0 493.0 L 77.0 497.0 L 81.0 497.0 L 81.0 492.0 L 77.0 492.0 L 76.0 489.0 L 79.0 485.0 L 83.0 486.0 L 84.0 484.0 L 85.0 487.0 L 88.0 487.0 L 89.0 483.0 L 93.0 489.0 L 96.0 487.0 Z M 45.0 465.0 L 26.0 469.0 L 26.0 472.0 L 37.0 469.0 L 36.0 478.0 L 43.0 477.0 L 40.0 470.0 L 45.0 468.0 Z M 196.0 464.0 L 196.0 470.0 L 210.0 506.0 L 219.0 513.0 L 226.0 536.0 L 231.0 537.0 L 235.0 551.0 L 245.0 556.0 L 246.0 559.0 L 252.0 558.0 L 254.0 560.0 L 252.0 564.0 L 270.0 562.0 L 267.0 558.0 L 262.0 561.0 L 254.0 555.0 L 255.0 552.0 L 251.0 554.0 L 244.0 547.0 L 244.0 542.0 L 239.0 544.0 L 235.0 541.0 L 236.0 537.0 L 233.0 535.0 L 232.0 528.0 L 214.0 498.0 L 209.0 495.0 L 199.0 465.0 Z M 107.0 463.0 L 107.0 466.0 L 103.0 467.0 L 103.0 471.0 L 109.0 473.0 L 106.0 476.0 L 110.0 477.0 L 111.0 480.0 L 114.0 478.0 L 117.0 480.0 L 114.0 473.0 L 111.0 472.0 L 111.0 465.0 L 114.0 464.0 L 115.0 469.0 L 122.0 471.0 L 122.0 468.0 L 119.0 467.0 L 116.0 461.0 Z M 86.0 460.0 L 96.0 469.0 L 94.0 474.0 L 99.0 474.0 L 101.0 470.0 L 99.0 461.0 Z M 70.0 458.0 L 66.0 456.0 L 58.0 462.0 L 54.0 460.0 L 53.0 464.0 L 47.0 462.0 L 48.0 467.0 L 54.0 466.0 L 61.0 473.0 L 66.0 473.0 L 63.0 470.0 L 64.0 465.0 L 61.0 463.0 L 67.0 460.0 L 70.0 461.0 Z M 157.0 454.0 L 151.0 454.0 L 154.0 457.0 L 149.0 462.0 L 146.0 459.0 L 141.0 465.0 L 135.0 467.0 L 136.0 477.0 L 133.0 481.0 L 127.0 483.0 L 127.0 490.0 L 135.0 489.0 L 127.0 496.0 L 131.0 499.0 L 131.0 503.0 L 140.0 503.0 L 141.0 500.0 L 147.0 501.0 L 140.0 489.0 L 148.0 492.0 L 150.0 484.0 L 147.0 488.0 L 146.0 483.0 L 140.0 481.0 L 143.0 478.0 L 140.0 472.0 L 145.0 472.0 L 146.0 468.0 L 147.0 471.0 L 150.0 471.0 L 147.0 465.0 L 150.0 463.0 L 153.0 464.0 L 154.0 469.0 L 159.0 469.0 L 162.0 460.0 L 159.0 464.0 Z M 115.0 452.0 L 115.0 456.0 L 125.0 456.0 L 123.0 452.0 Z M 88.0 452.0 L 78.0 453.0 L 79.0 456.0 L 76.0 459.0 L 79.0 456.0 L 80.0 460.0 L 84.0 460.0 L 85.0 456.0 L 88.0 458.0 Z M 148.0 451.0 L 140.0 455.0 L 138.0 462.0 L 142.0 460.0 L 142.0 455.0 L 148.0 453.0 Z M 440.0 451.0 L 445.0 459.0 L 449.0 459.0 L 446.0 454.0 L 447.0 448.0 L 457.0 455.0 L 453.0 458.0 L 453.0 463.0 L 458.0 462.0 L 459.0 464.0 L 455.0 465.0 L 452.0 471.0 L 456.0 471.0 L 457.0 476.0 L 460.0 478.0 L 459.0 482.0 L 455.0 483.0 L 457.0 491.0 L 452.0 494.0 L 454.0 501.0 L 457.0 501.0 L 458.0 495.0 L 459.0 498.0 L 463.0 498.0 L 464.0 490.0 L 475.0 489.0 L 475.0 483.0 L 472.0 487.0 L 466.0 484.0 L 466.0 480.0 L 470.0 479.0 L 471.0 472.0 L 465.0 471.0 L 469.0 468.0 L 475.0 471.0 L 484.0 471.0 L 486.0 479.0 L 499.0 475.0 L 500.0 477.0 L 491.0 484.0 L 491.0 488.0 L 499.0 487.0 L 500.0 484.0 L 507.0 484.0 L 502.0 472.0 L 504.0 467.0 L 500.0 464.0 L 497.0 468.0 L 495.0 463.0 L 491.0 463.0 L 490.0 467.0 L 489.0 465.0 L 482.0 467.0 L 477.0 465.0 L 467.0 466.0 L 466.0 463.0 L 458.0 461.0 L 459.0 453.0 L 452.0 448.0 L 452.0 444.0 L 445.0 444.0 L 443.0 450.0 Z M 123.0 447.0 L 114.0 442.0 L 113.0 444.0 L 103.0 445.0 L 102.0 448.0 L 99.0 446.0 L 98.0 450.0 L 104.0 450.0 L 106.0 447.0 L 107.0 450.0 L 121.0 450.0 Z M 191.0 438.0 L 192.0 451.0 L 195.0 451.0 L 194.0 441.0 Z M 404.0 434.0 L 396.0 473.0 L 400.0 469.0 L 402.0 457.0 L 405.0 454.0 L 409.0 454.0 L 417.0 461.0 L 418.0 468.0 L 428.0 470.0 L 429.0 467.0 L 432.0 470.0 L 433.0 467.0 L 440.0 467.0 L 436.0 454.0 L 433.0 454.0 L 431.0 450.0 L 429.0 450.0 L 429.0 456.0 L 426.0 457.0 L 429.0 460.0 L 427.0 466.0 L 425.0 463.0 L 418.0 461.0 L 418.0 445.0 L 421.0 442.0 L 417.0 438.0 L 412.0 438.0 L 412.0 443.0 L 415.0 445.0 L 409.0 446.0 L 410.0 440.0 L 407.0 434.0 Z M 121.0 440.0 L 126.0 449.0 L 148.0 444.0 L 146.0 436.0 L 140.0 436.0 L 132.0 441.0 L 129.0 434.0 L 125.0 435.0 L 126.0 438.0 Z M 192.0 401.0 L 189.0 401.0 L 187.0 415.0 L 179.0 424.0 L 177.0 431.0 L 181.0 428.0 L 193.0 430.0 L 193.0 423.0 L 191.0 422.0 L 193.0 421.0 L 191.0 416.0 L 194.0 415.0 L 191.0 407.0 Z" fill="rgb(224, 226, 234)" fill-opacity="0.98"/><path d="M 0.0 473.0 L 0.0 502.0 L 5.0 502.0 L 6.0 498.0 L 32.0 500.0 L 33.0 495.0 L 46.0 494.0 L 47.0 498.0 L 55.0 498.0 L 56.0 504.0 L 65.0 504.0 L 65.0 494.0 L 76.0 493.0 L 77.0 497.0 L 91.0 498.0 L 95.0 508.0 L 105.0 507.0 L 105.0 498.0 L 99.0 494.0 L 99.0 490.0 L 111.0 489.0 L 111.0 481.0 L 120.0 480.0 L 121.0 486.0 L 127.0 487.0 L 128.0 501.0 L 139.0 504.0 L 137.0 518.0 L 129.0 519.0 L 126.0 525.0 L 126.0 536.0 L 135.0 537.0 L 133.0 553.0 L 136.0 554.0 L 137.0 561.0 L 145.0 561.0 L 145.0 555.0 L 149.0 553.0 L 151.0 545.0 L 158.0 544.0 L 158.0 537.0 L 165.0 534.0 L 168.0 480.0 L 175.0 432.0 L 181.0 428.0 L 190.0 428.0 L 196.0 472.0 L 211.0 508.0 L 219.0 513.0 L 224.0 534.0 L 214.0 535.0 L 179.0 549.0 L 179.0 558.0 L 182.0 562.0 L 211.0 563.0 L 228.0 558.0 L 237.0 561.0 L 256.0 577.0 L 265.0 577.0 L 265.0 569.0 L 261.0 568.0 L 262.0 563.0 L 274.0 564.0 L 293.0 580.0 L 297.0 589.0 L 306.0 589.0 L 328.0 565.0 L 344.0 556.0 L 347.0 551.0 L 356.0 549.0 L 363.0 534.0 L 370.0 534.0 L 373.0 518.0 L 384.0 500.0 L 384.0 495.0 L 391.0 490.0 L 405.0 454.0 L 413.0 457.0 L 418.0 468.0 L 439.0 468.0 L 435.0 548.0 L 430.0 551.0 L 432.0 563.0 L 447.0 561.0 L 448.0 557.0 L 468.0 556.0 L 468.0 548.0 L 462.0 546.0 L 466.0 521.0 L 461.0 520.0 L 459.0 511.0 L 471.0 510.0 L 471.0 502.0 L 463.0 499.0 L 463.0 491.0 L 475.0 489.0 L 472.0 471.0 L 476.0 471.0 L 477.0 475.0 L 486.0 476.0 L 486.0 481.0 L 482.0 484.0 L 481.0 497.0 L 512.0 501.0 L 513.0 508.0 L 535.0 508.0 L 536.0 498.0 L 551.0 500.0 L 552.0 513.0 L 566.0 514.0 L 564.0 539.0 L 573.0 539.0 L 573.0 530.0 L 576.0 527.0 L 593.0 528.0 L 593.0 522.0 L 599.0 521.0 L 599.0 482.0 L 407.0 403.0 L 403.0 395.0 L 403.0 367.0 L 408.0 355.0 L 412.0 319.0 L 423.0 316.0 L 431.0 308.0 L 441.0 259.0 L 438.0 226.0 L 432.0 220.0 L 418.0 219.0 L 419.0 195.0 L 411.0 155.0 L 398.0 127.0 L 381.0 107.0 L 357.0 87.0 L 328.0 71.0 L 293.0 62.0 L 257.0 65.0 L 232.0 76.0 L 189.0 111.0 L 168.0 143.0 L 162.0 179.0 L 166.0 227.0 L 150.0 230.0 L 142.0 257.0 L 142.0 267.0 L 154.0 318.0 L 173.0 327.0 L 177.0 360.0 L 189.0 383.0 L 189.0 406.0 L 104.0 433.0 Z" fill="none" stroke="#0F172A" stroke-opacity="0.08" stroke-width="2"/></g></svg>